<svg id="Capa_1" data-name="Capa 1" xmlns="http://www.w3.org/2000/svg" viewBox="0 0 733 559"><defs><style>.cls-1{fill:#fff;}.cls-2{fill:#58c1e8;}.cls-3{fill:#273238;}.cls-4{fill:#b3c1c6;}.cls-5{fill:#dfe6ed;}.cls-6{fill:#8593b6;}.cls-7{fill:#8e9bbb;}.cls-8{fill:#dee1eb;}.cls-9{fill:#9eafa1;}.cls-10{fill:#2086a5;}.cls-11{fill:#43588e;}.cls-12{fill:#f6f7fa;}.cls-13{fill:#d9dee8;}.cls-14{fill:#323f44;}.cls-15{fill:#bdc4d7;}.cls-16{fill:#ebedf2;}.cls-17{fill:#d2e6ff;}.cls-18{fill:#6f7fa9;}</style></defs><g id="BACKGROUND"><rect id="Rectángulo_30" data-name="Rectángulo 30" class="cls-1" x="-40.62" y="-107.68" width="806" height="806"/><path id="Trazado_85" data-name="Trazado 85" class="cls-2" d="M133.23,511.75s-49.57-72-75.1-178.69S43.31,121,117.22,55.66,289.59,18.3,348.71,73h90.66s48.61,86.58,122.5,84,139.75,97.4,157.22,176.11S694.9,515.81,694.9,515.81Z"/><path id="Trazado_86" data-name="Trazado 86" class="cls-2" d="M99.59,527.76S38.9,494.41,23.07,417,75.83,269,82.43,230.26s-8-86.7,52.76-124.12S304,82.19,345,72.87,433.3-.53,515.12,14.14,676.11,72.85,680,168.9s-26.38,98.71,4,150.75,42.21,88.05,27.7,141.4-44.86,68-44.86,68Z"/><path id="Trazado_87" data-name="Trazado 87" class="cls-2" d="M220.71,510.41c-3.8-4-59.8-116.06,2.55-218.78s218.88-90.72,281.21-50.7,92.9,92.06,99.27,146.69S568.1,527.69,568.1,527.69Z"/></g><g id="OBJECTS"><rect id="Rectángulo_31" data-name="Rectángulo 31" class="cls-3" x="579.74" y="269.73" width="88.05" height="52.03" rx="5"/><path id="Trazado_88" data-name="Trazado 88" class="cls-3" d="M623.76,342.1l11.4-27H612.37Z"/><path id="Trazado_89" data-name="Trazado 89" class="cls-4" d="M623.49,286.81h20.6v3L654.18,284l-10.09-5.82v3h-20.6Z"/><path id="Trazado_90" data-name="Trazado 90" class="cls-4" d="M654.18,298.65H633.6v-3l-10.11,5.82,10.11,5.81v-3h20.58Z"/><path id="Trazado_91" data-name="Trazado 91" class="cls-4" d="M610.85,304l-1,.35a30.82,30.82,0,0,1-4.64-7.28,25.83,25.83,0,0,1-1.61-8.43l.71-.31L600,277.87a8.47,8.47,0,0,0-2.12,2.38c-2.46,4.18-2.22,10.56.26,16.8s5.13,11.82,10,15.32a9.55,9.55,0,0,0,7.21,2.12Z"/><path id="Trazado_92" data-name="Trazado 92" class="cls-4" d="M614,302.72l-1.36.49,4.47,10.67a8.34,8.34,0,0,0,1.34-.58,2.61,2.61,0,0,0,1.17-3.23l-2.32-5.85A2.6,2.6,0,0,0,614,302.72Z"/><path id="Trazado_93" data-name="Trazado 93" class="cls-4" d="M603.35,276a11.49,11.49,0,0,0-1.74.82l4.45,10.64,1.5-.61a2.64,2.64,0,0,0,1.42-3.34l-2.34-5.9A2.61,2.61,0,0,0,603.35,276Z"/><path id="Trazado_94" data-name="Trazado 94" class="cls-5" d="M199.92,492.41V372.35S198.58,340,215.6,330.66s88.66-4.34,88.66-4.34v166Z"/><path id="Trazado_95" data-name="Trazado 95" class="cls-1" d="M326.72,213.92s-4.34,36.37-6,39.36l-1.62,3-8.3,5.68s16,22.68,35.68,26.34,18-8.06,18-8.06l-3-6.35,4-34.68S329.72,222.93,326.72,213.92Z"/><path id="Trazado_96" data-name="Trazado 96" class="cls-1" d="M300.36,265l13-5.67S321.71,273,341.05,281s19.68,3.34,20.68,0a12.67,12.67,0,0,0-.34-7l1.44-11.67,7.74,2.58,26.85,217.21-69,3.34Z"/><path id="Trazado_97" data-name="Trazado 97" class="cls-3" d="M364.07,262.5s4.67,10.79,9,36.15,8.33,68,9.33,97.38S384,492.41,384,492.41h87c1,0,7-33,7-33s-38-32.58-39.95-37.91c-1.34-3.55-.66-69.48-6.33-99.83s-13-36.46-28.39-44.06C387.57,269.81,364.07,262.5,364.07,262.5Z"/><path id="Trazado_98" data-name="Trazado 98" class="cls-6" d="M409.43,454.21a.8.8,0,0,1-.8-.81c0-2.38-.44-36.27-.84-69s-.84-66.64-.84-69a.81.81,0,1,1,1.61,0h0c0,2.38.44,36.27.84,69s.84,66.66.84,69.06A.83.83,0,0,1,409.43,454.21Z"/><path id="Trazado_99" data-name="Trazado 99" class="cls-3" d="M236,446l-.66,46.36H336.71s4.34-39.34,2.68-43S236,446,236,446Z"/><g id="Grupo_3" data-name="Grupo 3"><path id="Trazado_100" data-name="Trazado 100" class="cls-7" d="M348.84,252.28A52.74,52.74,0,0,0,363,259.89l2.39-20.61S338.6,227,329.51,217.85C331.41,228.23,336.09,242,348.84,252.28Z"/></g><path id="Trazado_101" data-name="Trazado 101" class="cls-1" d="M396.76,146.21a72.25,72.25,0,0,1,8.33,26.7c1.34,14.67,0,52.36-12,68.36s-37.08,11.29-48.36,1.62c-10.42-8.87-20.69-18.67-23.35-38s5.66-56,29.34-63.71S396.76,146.21,396.76,146.21Z"/><path id="Trazado_102" data-name="Trazado 102" class="cls-1" d="M426.85,471.45h-4.33l-5.93-.16h-1.42c-2.1,0-3.89.21-5.56.11h-1.29a2.44,2.44,0,0,1-.54,0,7.6,7.6,0,0,1-2.2-.87,150.23,150.23,0,0,0-34.6-4.61c-14.89,0-28.26,1.08-30.43-.74s-3.52-20.57,9.2-21.79l15.63,5.93s35.71-4.24,48.8,5.41S426.85,471.45,426.85,471.45Z"/><path id="Trazado_103" data-name="Trazado 103" class="cls-1" d="M409.54,471.29h-1.29a14.4,14.4,0,0,0-1.37-1.84c-4-4.11-13.76-6.77-17.3-7.62a.61.61,0,0,1,.29-1.18c5.15,1.24,16.12,4.42,19.15,9.67C409.12,470.47,409.38,471,409.54,471.29Z"/><path id="Trazado_104" data-name="Trazado 104" class="cls-1" d="M416.57,471.21h-1.42c-4.4-8.06-11.59-10.32-20.48-13.19l-.54-.17a.62.62,0,0,1-.38-.77.6.6,0,0,1,.77-.38h0l.52.18C404.43,459.85,412,462.26,416.57,471.21Z"/><path id="Trazado_105" data-name="Trazado 105" class="cls-1" d="M423.87,471.39H422.5a35.13,35.13,0,0,0-23.18-17.19.59.59,0,0,1-.5-.68v0a.64.64,0,0,1,.7-.49C411.56,455.27,421.28,465.09,423.87,471.39Z"/><path id="Trazado_106" data-name="Trazado 106" class="cls-3" d="M329.38,188.42a31.42,31.42,0,0,0,12.51-13.35,37.9,37.9,0,0,0,4.5-18.68s9.35-1.5,23.36,2.67,30.62,9.84,44.68,1.84,14-20.84,7.17-26.18c-7.65-6-22.84-2.34-22.84-2.34s5.84-5.67,2.66-9-14.67,1-14.67,1-14-11.17-40.52-9.83S307,134.38,305.54,155.08s6,41.35,6,41.35Z"/><g id="Grupo_4" data-name="Grupo 4"><path id="Trazado_107" data-name="Trazado 107" class="cls-7" d="M383.17,193.43c-1.5,3.69-1.46,8.06-1.83,11.93-.29,3.06-.86,6.62,2,8.69,1.33,1,7.65,3.64,4.4,5.8a8.6,8.6,0,0,1-4.73.53,17.93,17.93,0,0,1-2.93-.16,21.87,21.87,0,0,0-3.11-.4.61.61,0,0,0-.31,1.13,13,13,0,0,0,6.11,1.45,9.1,9.1,0,0,0,5.06-.89,3.68,3.68,0,0,0,2.33-2.6,4.16,4.16,0,0,0-2-3.56c-1.26-.94-2.8-1.37-4.08-2.29-1.78-1.26-1.61-3.39-1.5-5.37.29-4.74,1.38-9.4,1.8-14.12,0-.71-.93-.71-1.16-.15Z"/></g><path id="Trazado_108" data-name="Trazado 108" class="cls-3" d="M396.81,204.5c-.5,2.83-2.55,4.84-4.56,4.45s-3.23-2.93-2.78-5.74,2.55-4.83,4.57-4.44S397.31,201.7,396.81,204.5Z"/><path id="Trazado_109" data-name="Trazado 109" class="cls-3" d="M371.29,202.28c-.45,3-2.6,5.23-4.84,4.83s-3.59-3.05-3.14-6.08,2.6-5.22,4.84-4.83S371.74,199.25,371.29,202.28Z"/><path id="Trazado_110" data-name="Trazado 110" class="cls-3" d="M390.86,192.93a46,46,0,0,0,4.7.1l1.13.11h.11l.6.12c.33.08.65.21,1,.29a6,6,0,0,0,.95.13l.51-.09h-.32a3.53,3.53,0,0,0,.65,0,1.76,1.76,0,0,0,1.19-2.11,1.93,1.93,0,0,0-.34-.67c0-.1-.14-.18-.21-.26l.19.21-.21-.28a1.06,1.06,0,0,0-.35-.35l-.39-.29a4.44,4.44,0,0,0-1.43-.58,12.08,12.08,0,0,0-2.87-.37,20.77,20.77,0,0,0-2.84.22,5.44,5.44,0,0,0-2.43.9,1.63,1.63,0,0,0-.54,2.24,1.68,1.68,0,0,0,.91.7Z"/><path id="Trazado_111" data-name="Trazado 111" class="cls-3" d="M373.08,188.46a5.08,5.08,0,0,0-.66-.33c-.18-.09-.69-.36-.31-.15l-.43-.23a10.11,10.11,0,0,0-2-.72,13.35,13.35,0,0,0-4.67-.32,10.83,10.83,0,0,0-4.63,1.45,3,3,0,0,0-.6.42l-.32.43v-.14a1.6,1.6,0,0,0-.69,1.35,1.38,1.38,0,0,0,.72,1.21,2,2,0,0,0,1.61,0h-.83a2.93,2.93,0,0,0,1.25,0s.45-.11.16,0,.46,0,.54,0h.29l.75-.08c1.1,0,2.2-.13,3.3-.16s2.07,0,3.1,0h1.58l.55.18a1.55,1.55,0,0,0,1.2-2.83Z"/><path id="Trazado_112" data-name="Trazado 112" class="cls-3" d="M381,234.83a15.13,15.13,0,0,1,7.52-6.79c-2.79-.29-16-1.5-19.34.39-3.72,2.11.69,10.62,8.4,11a10.1,10.1,0,0,0,2.26-.13A11,11,0,0,1,381,234.83Z"/><path id="Trazado_113" data-name="Trazado 113" class="cls-8" d="M320.05,216.93s1.33,5.16,9,11.17a88.23,88.23,0,0,0,18.81,10.38l.89-3.88s-11.51-5-16.85-10.51-6-8.5-6-8.5Z"/><path id="Trazado_114" data-name="Trazado 114" class="cls-3" d="M350.06,231.73a9.67,9.67,0,0,1,10,7.74c.44,3.22-2.53,6.7-9.46,3.59C342,239.19,343.89,232,350.06,231.73Z"/><path id="Trazado_115" data-name="Trazado 115" class="cls-8" d="M324.88,178.74s2.66-19.16,15.51-32.24c24.52-24.84,45.36-23.34,45.36-23.34s-.17-3.5-8.06-6.17c-7.35-2.5-10.67-1.16-10.67-1.16s-20.18,1.61-37.19,20.5S311,179.25,311,179.25Z"/><path id="Trazado_116" data-name="Trazado 116" class="cls-9" d="M323,176.41c-16.12-2.73-25,9.83-25.67,22.57s8.59,22.2,20.84,21.27C345.88,218.09,342.73,179.74,323,176.41Z"/><path id="Trazado_117" data-name="Trazado 117" class="cls-2" d="M315.05,207.94a11,11,0,0,1-9.87-5.87,12.23,12.23,0,0,1,.47-12.61.62.62,0,0,1,.84-.16.6.6,0,0,1,.16.84,11,11,0,0,0-.4,11.28,9.66,9.66,0,0,0,9.11,5.24,10.53,10.53,0,0,0,8.75-4.72,13.33,13.33,0,0,0,1.32-11.85,9,9,0,0,0-9-5.91.61.61,0,0,1-.68-.52h0a.61.61,0,0,1,.51-.68,10.1,10.1,0,0,1,10.3,6.69,14.61,14.61,0,0,1-1.45,12.9,11.81,11.81,0,0,1-9.67,5.26Z"/><path id="Trazado_118" data-name="Trazado 118" class="cls-3" d="M303.36,260.28s-48.68,12-65.69,31.35-25,114.73-25.35,132.41,12,25,19.34,30,39.69,14,65.7,15.34,50.7,0,50.7,0a34.83,34.83,0,0,1,3.92-14c3.71-7.74,8.42-9.35,8.42-9.35L338.05,438s-3.91-70.13-10-104C321.05,295,303.36,260.28,303.36,260.28Z"/><path id="Trazado_119" data-name="Trazado 119" class="cls-6" d="M384.07,426.85a.86.86,0,0,1-.32,0,.81.81,0,0,1-.4-1.06c4.56-10.3,9.29-30.5,11.95-44.69l.22-1.14c.81-4.18,1.81-9.37-.19-12.9-1-1.83-3.34-5.79-5.54-9.6s-4.47-7.68-5.08-8.8c-1.18-2.17,2.53-8.06,7.88-16,1.44-2.16,2.69-4,3.42-5.27,1.92-3.23.64-6.34-.82-9.83l-.57-1.31c-1.32-3.22-2.84-6.55-4.3-9.67l-1.79-3.9c-.79-1.73-1.61-3.47-2.37-5.26a306.53,306.53,0,0,0-15.71-31.92.81.81,0,0,1,.29-1.11.79.79,0,0,1,1.08.27l0,0a308.78,308.78,0,0,1,15.91,32l2.37,5.24,1.78,3.89c1.47,3.22,3,6.44,4.34,9.78l.5,1.19c1.5,3.58,3.05,7.27.74,11.29-.76,1.3-2,3.22-3.48,5.37-2.79,4.16-8.61,12.81-7.8,14.3.6,1.1,2.76,4.83,5.05,8.77s4.54,7.78,5.56,9.67c2.29,4.09,1.22,9.59.37,14l-.23,1.13c-1,5.17-6.11,31.61-12.06,45A.8.8,0,0,1,384.07,426.85Z"/><path id="Trazado_120" data-name="Trazado 120" class="cls-6" d="M336.58,429.68a.72.72,0,0,1-.56-.24C332.22,425.62,314,394,312.58,388c-.74-3.22,1.13-11.53,2.94-19.52,1.4-6.19,2.85-12.59,2.45-14.32-.63-2.6-5.3-6.44-9.82-10.1C302.68,339.62,297,335,296,330.85c-1.24-4.72-.18-34.27.53-53.82.24-7,.45-12.59.45-14.51a.81.81,0,0,1,.81-.81h0a.81.81,0,0,1,.8.81c0,2-.21,7.58-.45,14.62-.66,18.28-1.75,48.88-.58,53.37,1,3.65,6.64,8.29,11.66,12.4s9.67,7.85,10.36,11c.5,2.1-.87,8.06-2.43,15.05-1.61,7.47-3.6,15.9-2.93,18.81,1.33,5.82,19.34,36.89,23,40.64a.8.8,0,0,1,0,1.12h0a.76.76,0,0,1-.58.18Z"/><path id="Trazado_121" data-name="Trazado 121" class="cls-6" d="M271,415.84h-.11a.8.8,0,0,1-.69-.91h0c.6-4.19,9.85-87.69,10.27-94.09a.8.8,0,0,1,.85-.76.81.81,0,0,1,.76.86h0c-.44,6.45-9.67,90-10.29,94.2A.81.81,0,0,1,271,415.84Z"/><path id="Trazado_122" data-name="Trazado 122" class="cls-6" d="M337.39,438.52a.81.81,0,0,1-.31,0c-2-.82-11.1-3.89-22.56-7.76-23.15-7.8-54.81-18.49-60.89-21.61a.83.83,0,0,1-.34-1.1.81.81,0,0,1,1.08-.34c5.92,3.08,38.87,14.18,60.65,21.53,11.49,3.87,20.58,6.94,22.68,7.79a.81.81,0,0,1,.43,1.05A.83.83,0,0,1,337.39,438.52Z"/><path id="Trazado_123" data-name="Trazado 123" class="cls-6" d="M326.25,471.77c-20.36,0-59.85-3.67-89.85-14.28a.85.85,0,0,1-.57-1.06.84.84,0,0,1,1.06-.56h0c37.9,13.41,90.92,15.7,100.78,13.49a.82.82,0,1,1,.36,1.61A63.21,63.21,0,0,1,326.25,471.77Z"/><path id="Trazado_124" data-name="Trazado 124" class="cls-10" d="M93.17,271.53c6.32,5.56,14.33,9.12,19.88,15.56,2.19,2.53,4.14,5.22,6.17,7.88,1.49,1.93,5.42,5.13,6.06,7.56.28,1.06.21-.39,0-1.45V301c-.54-4.92-1-9.85-1.12-14.8s.14-9.88-.17-14.81c-.45-6.94-2.61-13.67-8.28-18-2.77-2.11-6.35-3.41-8.9-5.77s-1.45-4.83,0-7.3a25.27,25.27,0,0,0,3.46-7.33,13,13,0,0,0-2.11-8.82c-3.3-5.55-10.64-11.74-17.57-10.9-5.79.69-6.45,7.37-6.35,12s.52,9,.56,13.56-.74,9.18-.8,13.81C83.69,260.44,87.32,266.44,93.17,271.53Z"/><path id="Trazado_125" data-name="Trazado 125" class="cls-10" d="M151.87,343.69a74.62,74.62,0,0,1,6.25-11.95c3.42-5.24,7.19-10.35,9.48-16.2s2-12.41,2.22-18.71c.18-4.63,1.62-9.26,1.18-13.92-.18-2.22-1.47-5.82-4.33-5.46-2.26.29-3.58,3.08-4.45,4.83a83.65,83.65,0,0,0-3.66,9.68c-.44,1.27-.86,2.56-1.4,3.78-.32.71-1.36,2.45-2.31,2.23-1.61-.42-.16-7.11,0-8.29,1.23-5.94,3.08-11.47,3.32-17.6.37-8.88-.3-19.45-9-24.31-2.27-1.27-5.14-2-7.3-.12s-2.74,5.12-3,7.78c-1,8.21.95,16,3.6,23.68,2.16,6.45,4.74,12.9,4.93,19.76.18,6.57-3.22,12.37-4.84,18.57a59.2,59.2,0,0,0-2,18.3c0,4,.13,8,.42,12,.28,3.67.6,7.33,1.05,11a17.66,17.66,0,0,0,.27,2.29c-1.42-3.4-1.91-7.29-3.08-10.7-2.07-6.06-4.48-12-6.44-18.1a149.68,149.68,0,0,0-5.37-15c-2-4.53-4.5-9.33-8.3-12.67a12.17,12.17,0,0,0-8.16-3.22,22,22,0,0,0-5.61,1.19,6.31,6.31,0,0,1-6-1.07c-6.23-4.83-8.06-13.36-12.72-19.34C83.12,277.61,75,269.92,69,274.83c-3.22,2.62-4.06,7.68-3.88,11.55A28,28,0,0,0,70,299.74c2.69,4.32,6.16,8.19,8.64,12.62A13.35,13.35,0,0,1,80,320.42a19.42,19.42,0,0,0,.49,8.17c2.85,8.06,11.77,7,18.7,7.16a52.09,52.09,0,0,1,14.65,2.44,16.25,16.25,0,0,1,10.69,10.51c1.37,3.8,2.11,8.06,4.71,11.36a12,12,0,0,0,4.59,3.43c2.71,1.2,10.94,1.71,11,1a36.91,36.91,0,0,1,2.14-7.57C148.4,352.42,150,348.05,151.87,343.69Z"/><path id="Trazado_126" data-name="Trazado 126" class="cls-10" d="M190.12,342.2c-.71-4.62-.58-9.67-2.77-13.94a.61.61,0,0,0-.84-.23h0c-1.61.87-1.61,3.4-1.78,5-.21,2.58,0,5.16-.37,7.72a58.21,58.21,0,0,1-3.22,13.4,14.5,14.5,0,0,1-10,9,25.47,25.47,0,0,0-8.77,3.87,18.51,18.51,0,0,0-5.16,7.11c-3.22,7.27-4.84,15.38-6.27,23.15-1,5.22-1.84,10.47-3.11,15.65a153.37,153.37,0,0,0-3.36,15.59c-.12.27-.25.53-.37.8-.34.79.9,1.21,1.33.57,5-7.72,11.12-14.64,19.44-18.88,3.75-1.92,8.75-2.32,11.9-5.34,2.38-2.29,2.7-5.78,2.35-8.91-.47-4.1-2.43-7.46-4.48-10.95-1.13-1.91-2.45-4-2-6.3a8,8,0,0,1,4.08-4.94c3.45-2.15,7.5-3.12,10.33-6.21A17,17,0,0,0,191.4,358,71.69,71.69,0,0,0,190.12,342.2Z"/><path id="Trazado_127" data-name="Trazado 127" class="cls-10" d="M121.82,368.82a66.29,66.29,0,0,0-15.75-14.51c-3.22-2.13-10.75-6.32-12.28,0-.89,3.67,2.7,7.28,5.07,9.59,3.57,3.46,7.68,6.45,10.68,10.44-3.71,1.2-7.6,1.42-10.84,4-3.82,3.05-5.54,8.92-1.74,12.66a24.55,24.55,0,0,0,6.59,4c3,1.44,6,2.76,9.11,4,6.63,2.78,13.33,5.58,19,10.11s11.17,12.43,11.62,20c0,.72-.23,0,.19-.26.24.21,1-.18,1-.6a79.47,79.47,0,0,0-6.7-32.06A133.05,133.05,0,0,0,121.82,368.82Z"/><path id="Trazado_128" data-name="Trazado 128" class="cls-11" d="M106.55,264.7c2.45,5.06,5,10,7.71,14.92a122.79,122.79,0,0,1,7.15,14.51c2.4,6.24,4.84,12.38,7.45,18.57a180.36,180.36,0,0,1,6.88,19.67,232.64,232.64,0,0,1,7.79,40,160.5,160.5,0,0,1,.82,20.68c-.14,5.39-.76,10.72-1.25,16.12a94.66,94.66,0,0,0-.46,16.83c.4,4.68,1.15,10.24,4.84,13.58a.84.84,0,0,0,1.18-.08.82.82,0,0,0,.13-.92c-4.32-8.85-4.08-18.51-3.23-28.12.47-5.28,1.1-10.56,1.28-15.87a158.07,158.07,0,0,0-.68-20.3,240.44,240.44,0,0,0-7.32-39.2,172.64,172.64,0,0,0-6.45-19.34c-2.5-6.36-5.4-12.55-7.83-18.93-4.4-11.56-11.12-21.79-17.06-32.56-.3-.57-1.11,0-.85.5Z"/><path id="Trazado_129" data-name="Trazado 129" class="cls-11" d="M143.74,359.22c.69-8.41,1.44-16.5,4.27-24.53,1.33-3.74,2.94-7.38,4.21-11.14,1.05-3.11,2.63-7.37,1.82-10.67a.36.36,0,0,0-.44-.28.37.37,0,0,0-.28.28c-.55,1.89-.49,3.95-.89,5.88a48.39,48.39,0,0,1-1.47,5.56c-1.24,3.89-2.87,7.61-4.28,11.45a56.63,56.63,0,0,0-3.53,23.45.29.29,0,0,0,.58,0Z"/><path id="Trazado_130" data-name="Trazado 130" class="cls-11" d="M95,310.88c3.34,8.06,13.38,8.53,20.7,10.33a19.36,19.36,0,0,1,11.85,9.3,70.85,70.85,0,0,1,6.75,16.28h.1c-2-9.67-5-21.31-14.94-25.79-8.06-3.61-18.51-1.8-23.62-10.43-.26-.42-1-.14-.84.36Z"/><path id="Trazado_131" data-name="Trazado 131" class="cls-11" d="M138.46,358c.4.53.76,1.1,1.17,1.61a3.76,3.76,0,0,0,.67.71,1.6,1.6,0,0,0,.93.47.19.19,0,0,0,.2-.18.14.14,0,0,0,0-.11,3.63,3.63,0,0,0-.71-.65l-.71-.63c-.47-.45-.89-.93-1.35-1.38,0-.08-.26,0-.18.14Z"/><path id="Trazado_132" data-name="Trazado 132" class="cls-11" d="M117.58,383.55A81.76,81.76,0,0,1,132.88,400a100.77,100.77,0,0,1,5.56,9.17A100.22,100.22,0,0,1,143,419.79c.1.27.6.27.57,0-.81-7.6-5.61-14.09-9.46-20.41a49.15,49.15,0,0,0-7.16-8.66,63.07,63.07,0,0,0-8.8-7.77c-.39-.27-.9.36-.52.68Z"/><path id="Trazado_133" data-name="Trazado 133" class="cls-11" d="M163.44,374.6c-2.77,1.61-2.85,6-2.92,8.75-.1,5.39,1.23,10.43-1.13,15.56-2.12,4.63-5.53,8.5-8.22,12.78-2.5,4-5,9.18-4.83,14,0,.29.43.44.56.16a58.69,58.69,0,0,0,2.1-7,29,29,0,0,1,3.42-7.22c2.58-4,5.74-7.62,7.83-11.93s1.87-9,1.73-13.9c-.1-3.13-.4-8.16,2.11-10.48.4-.37-.1-1-.57-.74Z"/><path id="Trazado_134" data-name="Trazado 134" class="cls-1" d="M144.89,426.2c-11.17-.14-32.37-.3-32.37-.3l5.25,39.1a17.75,17.75,0,0,0,17.59,15.37h19.23A17.73,17.73,0,0,0,172.16,465l5.19-39.11S156,426.06,144.89,426.2Z"/><path id="Trazado_135" data-name="Trazado 135" class="cls-12" d="M685.08,354.34,621.33,480.62,435.43,482,492.8,352.55Z"/><path id="Trazado_136" data-name="Trazado 136" class="cls-13" d="M312.08,481.17V471.06H432.4l55.37-121.4H680.25l4.83,4.68h-188L439.56,481.07S312.08,480.83,312.08,481.17Z"/><path id="Trazado_137" data-name="Trazado 137" class="cls-13" d="M588.56,424c-2.1,6.3-13.5,11.15-25.46,10.86s-20-5.64-17.86-11.94,13.51-11.17,25.47-10.87S590.65,417.72,588.56,424Z"/><path id="Trazado_138" data-name="Trazado 138" class="cls-1" d="M439.56,481.88a.82.82,0,0,1-.74-1.14l57.74-127.2h188.6a.8.8,0,0,1,.81.8h0a.83.83,0,0,1-.81.81H497.61L440.29,481.41a.8.8,0,0,1-.73.47Z"/><rect id="Rectángulo_32" data-name="Rectángulo 32" class="cls-3" x="82.58" y="490.75" width="221.12" height="49.02"/><rect id="Rectángulo_33" data-name="Rectángulo 33" class="cls-14" x="302.44" y="490.75" width="397.84" height="49.02"/><path id="Trazado_139" data-name="Trazado 139" class="cls-15" d="M303.7,490.75H82.58v9h617.7v-9Z"/><rect id="Rectángulo_34" data-name="Rectángulo 34" class="cls-3" x="71.91" y="481.08" width="241.46" height="12.01"/><rect id="Rectángulo_35" data-name="Rectángulo 35" class="cls-14" x="312.11" y="481.08" width="397.84" height="12.01"/><rect id="Rectángulo_36" data-name="Rectángulo 36" class="cls-3" x="161.07" y="167.38" width="95.56" height="56.47" rx="5.43"/><path id="Trazado_140" data-name="Trazado 140" class="cls-3" d="M278.86,195.61l-29.31-12.37V208Z"/><circle id="Elipse_4" data-name="Elipse 4" class="cls-16" cx="190.33" cy="195.61" r="5.4"/><circle id="Elipse_5" data-name="Elipse 5" class="cls-16" cx="208.85" cy="195.61" r="5.4"/><circle id="Elipse_6" data-name="Elipse 6" class="cls-16" cx="227.36" cy="195.61" r="5.4"/><path id="Trazado_141" data-name="Trazado 141" class="cls-3" d="M645.28,47.5H465.06a21,21,0,0,0-20.95,21v85.44a21,21,0,0,0,20.95,21h16.12c.45,7.74-.66,19.35-7.14,34a90.55,90.55,0,0,0,39.08-34H645.3a21,21,0,0,0,21-21h0V68.45a21,21,0,0,0-21-21Z"/><path id="Trazado_142" data-name="Trazado 142" class="cls-1" d="M568.41,88.25H479a4.47,4.47,0,0,1-4.45-4.45h0A4.47,4.47,0,0,1,479,79.35h89.39a4.45,4.45,0,0,1,4.44,4.45h0a4.46,4.46,0,0,1-4.44,4.45Z"/><path id="Trazado_143" data-name="Trazado 143" class="cls-17" d="M632.5,114.15H477.3a2.72,2.72,0,0,1-2.72-2.72h0a2.72,2.72,0,0,1,2.72-2.73H632.5a2.72,2.72,0,0,1,2.72,2.73h0A2.72,2.72,0,0,1,632.5,114.15Z"/><path id="Trazado_144" data-name="Trazado 144" class="cls-17" d="M632.5,129.29H477.3a2.72,2.72,0,0,1-2.72-2.73h0a2.72,2.72,0,0,1,2.72-2.72H632.5a2.72,2.72,0,0,1,2.72,2.72h0A2.72,2.72,0,0,1,632.5,129.29Z"/><path id="Trazado_145" data-name="Trazado 145" class="cls-17" d="M598.65,145.41H477.3a2.73,2.73,0,0,1-2.73-2.73h0A2.72,2.72,0,0,1,477.3,140H598.65a2.72,2.72,0,0,1,2.72,2.72h0A2.72,2.72,0,0,1,598.65,145.41Z"/><path id="Trazado_146" data-name="Trazado 146" class="cls-1" d="M631.27,88.25H588.64a4.47,4.47,0,0,1-4.45-4.45h0a4.46,4.46,0,0,1,4.45-4.45h42.63a4.46,4.46,0,0,1,4.45,4.45h0a4.47,4.47,0,0,1-4.45,4.45Z"/><rect id="Rectángulo_37" data-name="Rectángulo 37" class="cls-1" x="472.17" y="245.34" width="54.86" height="39.53" rx="2"/><path id="Trazado_147" data-name="Trazado 147" class="cls-18" d="M499.93,271a1.3,1.3,0,0,1-.76-.27L472.82,249a1.23,1.23,0,0,1-.13-1.74,1.24,1.24,0,0,1,1.74-.13L500,268.21l24.9-21.68a1.21,1.21,0,1,1,1.61,1.82h0l-25.67,22.34A1.18,1.18,0,0,1,499.93,271Z"/><path id="Trazado_148" data-name="Trazado 148" class="cls-18" d="M473.6,283.94a1.19,1.19,0,0,1-1.21-1.17,1.24,1.24,0,0,1,.34-.86l18.43-19.34a1.21,1.21,0,0,1,1.71,1.71l-18.43,19.34a1.08,1.08,0,0,1-.83.32Z"/><path id="Trazado_149" data-name="Trazado 149" class="cls-18" d="M525.62,283.23a1.19,1.19,0,0,1-.87-.35l-18.34-18.4a1.21,1.21,0,0,1,0-1.71,1.2,1.2,0,0,1,1.69,0l0,0,18.36,18.4a1.23,1.23,0,0,1,0,1.72A1.16,1.16,0,0,1,525.62,283.23Z"/><rect id="Rectángulo_38" data-name="Rectángulo 38" class="cls-3" x="577.61" y="208.86" width="104.59" height="27.68" rx="4"/><path id="Trazado_150" data-name="Trazado 150" class="cls-1" d="M604,231.57a1.18,1.18,0,0,1-1-.45,1.52,1.52,0,0,1-.34-1.12l.4-3.6v-.18s-.13,0-.22,0L600,228.35a1.29,1.29,0,0,1-1.1.29,1.38,1.38,0,0,1-.94-.69,1.4,1.4,0,0,1-.14-1.27,1.52,1.52,0,0,1,.8-.78l3.23-1.5c.1,0,.14,0,.14-.13s0-.11-.14-.14l-3.23-1.49a1.42,1.42,0,0,1-.79-.87,1.54,1.54,0,0,1,.13-1.17,1.36,1.36,0,0,1,1.83-.59l.2.14,2.87,2.17h.23c.06,0,.08-.1,0-.19l-.4-3.58a1.53,1.53,0,0,1,.35-1.13,1.35,1.35,0,0,1,1.07-.45,1.26,1.26,0,0,1,1,.45,1.37,1.37,0,0,1,.31,1.13l-.4,3.58v.19s.13,0,.23,0l2.86-2.13a1.41,1.41,0,0,1,1.13-.3,1.25,1.25,0,0,1,.9.71,1.37,1.37,0,0,1,.16,1.27,1.44,1.44,0,0,1-.82.77l-3.22,1.49c-.1,0-.13,0-.13.14s0,.1.13.13l3.22,1.5a1.39,1.39,0,0,1,.66,2,1.23,1.23,0,0,1-.9.69,1.43,1.43,0,0,1-1.13-.24l-2.86-2.18H605c-.07,0,0,.1,0,.18l.4,3.6a1.31,1.31,0,0,1-.32,1.12,1.41,1.41,0,0,1-1.1.45Z"/><path id="Trazado_151" data-name="Trazado 151" class="cls-1" d="M623,231.57a1.18,1.18,0,0,1-1-.45,1.48,1.48,0,0,1-.34-1.12l.4-3.6v-.18s-.13,0-.23,0L619,228.35a1.28,1.28,0,0,1-1.1.29A1.36,1.36,0,0,1,617,228a1.45,1.45,0,0,1-.16-1.28,1.51,1.51,0,0,1,.82-.77l3.22-1.5c.1,0,.13,0,.13-.13s0-.11-.13-.14l-3.22-1.49a1.37,1.37,0,0,1-.79-.87,1.5,1.5,0,0,1,.13-1.17,1.35,1.35,0,0,1,1.82-.59,1.1,1.1,0,0,1,.21.14l2.87,2.17h.23c.06,0,0-.1,0-.19l-.4-3.58a1.45,1.45,0,0,1,.35-1.13,1.41,1.41,0,0,1,2-.07l.08.07a1.37,1.37,0,0,1,.31,1.13l-.4,3.58v.19h.22l2.87-2.13a1.4,1.4,0,0,1,1.13-.3,1.32,1.32,0,0,1,.9.71,1.43,1.43,0,0,1,.16,1.27,1.51,1.51,0,0,1-.82.77l-3.23,1.49c-.1,0-.13,0-.13.14s0,.1.13.13l3.23,1.5a1.5,1.5,0,0,1,.82.87,1.37,1.37,0,0,1-.16,1.18,1.25,1.25,0,0,1-.9.69,1.43,1.43,0,0,1-1.13-.24l-2.87-2.18H624c-.07,0-.09.1,0,.18l.4,3.59a1.33,1.33,0,0,1-.34,1.13,1.35,1.35,0,0,1-1.08.45Z"/><path id="Trazado_152" data-name="Trazado 152" class="cls-1" d="M642.06,231.57a1.26,1.26,0,0,1-1-.45,1.63,1.63,0,0,1-.32-1.13l.4-3.59a.15.15,0,0,0,0-.18h-.22L638,228.39a1.29,1.29,0,0,1-1.11.29A1.33,1.33,0,0,1,636,228a1.37,1.37,0,0,1-.16-1.27,1.53,1.53,0,0,1,.82-.78l3.22-1.5c.1,0,.13,0,.13-.12s0-.12-.13-.15l-3.22-1.48a1.39,1.39,0,0,1-.79-.87,1.5,1.5,0,0,1,1-1.89,1.51,1.51,0,0,1,1.11.26l2.87,2.18h.23c.06,0,0-.1,0-.2l-.4-3.58a1.41,1.41,0,0,1,2.36-1.2l.07.08a1.31,1.31,0,0,1,.3,1.12l-.4,3.58v.19h.23l2.87-2.12a1.39,1.39,0,0,1,1.13-.31,1.34,1.34,0,0,1,.9.71,1.37,1.37,0,0,1,.14,1.27,1.56,1.56,0,0,1-.8.78l-3.23,1.48a.12.12,0,0,0-.14.11,0,0,0,0,0,0,0s0,.1.14.13l3.23,1.5a1.41,1.41,0,0,1,.8.87,1.3,1.3,0,0,1-.14,1.18,1.26,1.26,0,0,1-.9.69,1.37,1.37,0,0,1-1.13-.24l-2.87-2.17h-.23c-.06,0-.08.1,0,.17l.4,3.6a1.3,1.3,0,0,1-.33,1.13,1.41,1.41,0,0,1-1.07.4Z"/><path id="Trazado_153" data-name="Trazado 153" class="cls-1" d="M661.1,231.57a1.2,1.2,0,0,1-1-.45,1.62,1.62,0,0,1-.33-1.12l.39-3.6a.15.15,0,0,0,0-.18.22.22,0,0,0-.22,0l-2.87,2.13a1.33,1.33,0,0,1-1.12.29A1.31,1.31,0,0,1,655,228a1.42,1.42,0,0,1-.17-1.28,1.53,1.53,0,0,1,.83-.77l3.22-1.5c.08,0,.13,0,.13-.13s0-.11-.13-.14l-3.22-1.49a1.3,1.3,0,0,1-.79-.87,1.41,1.41,0,0,1,.13-1.17,1.38,1.38,0,0,1,.91-.71,1.45,1.45,0,0,1,1.12.26l2.87,2.17a.18.18,0,0,0,.22,0v-.19l-.39-3.58a1.46,1.46,0,0,1,.36-1.13,1.41,1.41,0,0,1,2-.07l.08.07a1.45,1.45,0,0,1,.31,1.13l-.4,3.58v.19h.22l2.87-2.13a1.4,1.4,0,0,1,1.13-.3,1.32,1.32,0,0,1,.9.71,1.39,1.39,0,0,1,.14,1.27,1.47,1.47,0,0,1-.8.77l-3.23,1.49a.12.12,0,0,0-.14.11v0s0,.1.14.13l3.23,1.5a1.38,1.38,0,0,1,.8.87,1.33,1.33,0,0,1-.14,1.18,1.25,1.25,0,0,1-.9.69,1.43,1.43,0,0,1-1.13-.24l-2.87-2.18h-.22s-.09.1,0,.18l.4,3.59a1.37,1.37,0,0,1-1.42,1.58Z"/></g></svg>