<svg xmlns="http://www.w3.org/2000/svg" width="359.453" height="479" viewBox="0 0 359.453 479">
  <path id="Trazado_1" data-name="Trazado 1" d="M462.654,135.128a179.8,179.8,0,0,0-301.484,83.41l44.816,22.909v-2.886a4.456,4.456,0,0,1,4.043-4.436l24.48-2.238h59.323A27.306,27.306,0,0,1,316.8,244.45l10.228,15.979,3.926,6.144a11.955,11.955,0,0,1,1.865,6.36,10.528,10.528,0,0,1,0,1.374v.412l-.177.942-.118.432a8.36,8.36,0,0,1-.294.923l-.118.334c-.177.412-.353.8-.55,1.2h0A12.19,12.19,0,0,1,329.6,281.3a11.641,11.641,0,0,1-8.343,3.455H308.85v6.812a41.558,41.558,0,0,1,17.157,3.926c6.282,3.435,18.2,16.077,32.371,30.388,9.619,9.717,21.476,16.1,33.136,33.372,4.3,6.4,14.37,30.859,27.208,49.665,24.087,35.335,78.522,126.184,96.543,152.411h0V262.216a179.187,179.187,0,0,0-52.61-127.087Zm-63.779,26.737a19.728,19.728,0,0,0,10.267-4.966,19.983,19.983,0,0,0,4.986-10.267.864.864,0,0,1,1.708,0,17.354,17.354,0,0,0,15.253,15.233.864.864,0,0,1,0,1.708,17.393,17.393,0,0,0-15.253,15.253.864.864,0,0,1-1.708,0,17.451,17.451,0,0,0-15.253-15.253.864.864,0,0,1,0-1.708ZM373.257,212.9a31.665,31.665,0,0,0-7.852,16.274,1.374,1.374,0,0,1-2.709,0,27.581,27.581,0,0,0-24.185-24.165,1.374,1.374,0,0,1,0-2.709A27.581,27.581,0,0,0,362.7,178.119a1.374,1.374,0,0,1,2.709,0A27.581,27.581,0,0,0,389.59,202.3h0a1.374,1.374,0,0,1,0,2.709h0a31.408,31.408,0,0,0-16.333,8.029ZM475.12,258.9h0a46.8,46.8,0,0,0-41.008,41.008,2.316,2.316,0,0,1-4.594,0,46.8,46.8,0,0,0-40.969-40.969,2.316,2.316,0,0,1,0-4.593,53.4,53.4,0,0,0,27.62-13.388,53.317,53.317,0,0,0,13.388-27.62h0a2.316,2.316,0,0,1,4.593,0h0a53.316,53.316,0,0,0,13.29,27.62,53.316,53.316,0,0,0,27.679,13.309h0a2.336,2.336,0,1,1,0,4.672Z" transform="translate(-155.811 -82.501)" fill="#58c1e8"/>
  <path id="Trazado_2" data-name="Trazado 2" d="M365.659,419.394a32.547,32.547,0,0,1-32.547,32.547H259.5a32.527,32.527,0,0,1-32.547-32.547V351.688a32.528,32.528,0,0,1,6.753-19.827l8.912-11.6a54.474,54.474,0,0,0,8.127-14.9,11.052,11.052,0,0,1-.785-3.514c-.53-5.889.294-7.126,3.337-9.678a4.062,4.062,0,0,1,.491-.294v-.628c-10.64-.726-13.309-3.318-13.879-9.54-.609-6.714.334-8.127,3.769-10.973-7.852-1.021-9.972-3.553-10.483-8.657a18.08,18.08,0,0,1,0-5.2,2.806,2.806,0,0,1-.177-.8c-.766-7.97,7.2-15.8,16.627-23.556a42.657,42.657,0,0,0-14.114-6.91l-1.649,1.3a4.378,4.378,0,0,1-5.477-.157,4.319,4.319,0,0,1-1.492-2.768h-.766c-6.4-.216-13-5.32-10.875-12.151s5.752-10.875,13.859-11.5a22.812,22.812,0,0,1,8.4,1.139v-.334a30.76,30.76,0,0,0-3.4-8.245,16.862,16.862,0,0,1-2.316-8.637V176.8l-19.081-1.786a4.456,4.456,0,0,1-4.044-4.436V168.87L158.44,194.645V478.324H403.173c-12.112-43.069-25.52-106.613-37.612-127.873Z" transform="translate(-158.44 0.676)" fill="#58c1e8"/>
  <path id="Trazado_3" data-name="Trazado 3" d="M214.463,185.55H209.5v.157s-.864,1.315-2.336,3.376a54.958,54.958,0,0,1,7.3,2.356Z" transform="translate(-111.521 16.739)" fill="#00b0f4"/>
  <path id="Trazado_4" data-name="Trazado 4" d="M207.223,194.112a16.863,16.863,0,0,0,2.316,8.637,30.761,30.761,0,0,1,3.416,8.068c0,.118,0,.236,0,.334.824,4.849-5.889,14.389-9.815,19.395a4.358,4.358,0,0,0,6.105,6.125l1.649-1.3a111.462,111.462,0,0,0,18.472-20.357c1.472-1.963,2.336-3.376,2.336-3.376v-.157h4.967V239.38c4.24-6.89,7.479-12.838,13.741-16.391a26.894,26.894,0,0,1,9.815-3.121,143.677,143.677,0,0,1,26.5-1.551v-6.831H299a11.641,11.641,0,0,0,8.343-3.455,12.19,12.19,0,0,0,1.963-2.748h0c.2-.393.373-.785.55-1.2l.118-.334a8.356,8.356,0,0,0,.294-.923l.118-.432.177-.942v-.412a10.513,10.513,0,0,0,0-1.374,11.955,11.955,0,0,0-1.865-6.36l-3.926-6.144H275.4c-29.583,0-37.612-10.777-43.324-28.543H212.6l-24.479,2.238a4.456,4.456,0,0,0-4.122,4.4V168.1h0v10.62h0v1.708a4.456,4.456,0,0,0,4.122,4.456l19.1,1.747Z" transform="translate(-133.825 -9.195)" fill="#273238"/>
  <path id="Trazado_5" data-name="Trazado 5" d="M207,231.75a4.715,4.715,0,0,1,1.139-.55h-1.06Z" transform="translate(-111.675 60.702)" fill="#004dab"/>
  <path id="Trazado_6" data-name="Trazado 6" d="M330.792,301.964a47.112,47.112,0,0,0-8.088-9.815c-16.136-12.8-31.526-21.594-38.672-36.081s-6.831-26.187-6.655-35.335a25.637,25.637,0,0,0-2.65-12.387c-3.769.412-12.171-4.5-14.232-5.732l-.451-.294-.118.294a26.54,26.54,0,0,1-7.558,10.267,37.3,37.3,0,0,1-11.916,4.064q-1.413.275-2.827.471a33.745,33.745,0,0,1-11.778.118l-.216,1.727c4.358.707,8.578,1.492,11.955,1.963.942.118,1.826.236,2.611.294h.255c9.167.648,10.247,8.951,7.852,13.015-1.688,2.905-5.791,4.142-11.091,4.613h-.883l.883.157a79.565,79.565,0,0,0,8.264,1.276c8.794.687,9.815,9.482,7.558,13.741s-8.657,5.124-16.509,5.143h0c5.182.923,10.306,2.081,13.545,2.336,7.577.589,8.461,8.3,6.517,12.053s-8.284,4.594-15.7,4.476c-3.219,0-6.635-.216-10.051-.334-8.7-.294-12.249-1.669-13.741-4.986a54.475,54.475,0,0,1-8.127,14.9l-8.912,11.6a32.527,32.527,0,0,0-6.753,19.827v67.8a32.528,32.528,0,0,0,32.547,32.547h73.516a32.547,32.547,0,0,0,32.724-32.508V310.621a32.138,32.138,0,0,0-1.3-8.657Zm-16.175,77.069a7.97,7.97,0,0,1-8.048,7.97H218.721a7.97,7.97,0,0,1-7.97-7.97V331.547a7.97,7.97,0,0,1,7.97-7.97h87.846a7.97,7.97,0,0,1,7.97,7.97Z" transform="translate(-124.868 32.89)" fill="#273238"/>
  <path id="Trazado_7" data-name="Trazado 7" d="M318.957,150.054h0a53.317,53.317,0,0,1-13.388,27.62,53.394,53.394,0,0,1-27.581,13.309,2.316,2.316,0,0,0,0,4.594A46.8,46.8,0,0,1,319,236.585a2.316,2.316,0,0,0,4.594,0A46.8,46.8,0,0,1,364.6,195.577h0a2.316,2.316,0,0,0,0-4.594h0a53.316,53.316,0,0,1-27.718-13.309,53.317,53.317,0,0,1-13.388-27.62h0a2.316,2.316,0,0,0-4.535,0Z" transform="translate(-45.25 -19.219)" fill="#fff"/>
  <path id="Trazado_8" data-name="Trazado 8" d="M252.051,158.684a27.581,27.581,0,0,1,24.185,24.165,1.374,1.374,0,0,0,2.709,0,27.581,27.581,0,0,1,24.185-24.165h0a1.374,1.374,0,0,0,0-2.709h0a27.581,27.581,0,0,1-24.185-24.185,1.374,1.374,0,0,0-2.709,0,27.581,27.581,0,0,1-24.185,24.185,1.374,1.374,0,0,0,0,2.709Z" transform="translate(-69.389 -36.153)" fill="#fff"/>
  <path id="Trazado_9" data-name="Trazado 9" d="M282.62,132.471a17.451,17.451,0,0,1,15.253,15.253.864.864,0,0,0,1.708,0,17.393,17.393,0,0,1,15.253-15.253.864.864,0,0,0,0-1.708,17.353,17.353,0,0,1-15.253-15.233.864.864,0,0,0-1.708,0,19.984,19.984,0,0,1-4.986,10.267,19.728,19.728,0,0,1-10.267,4.967.864.864,0,0,0,0,1.708Z" transform="translate(-39.556 -51.419)" fill="#fff"/>
  <path id="Trazado_10" data-name="Trazado 10" d="M209.884,185.954a22.809,22.809,0,0,0-8.4-1.139c-8.107.628-11.778,4.692-13.859,11.5S192.1,208.254,198.5,208.47h.766a4.358,4.358,0,0,1,.864-3.2C203.995,200.343,210.708,190.8,209.884,185.954Z" transform="translate(-130.714 16.002)" fill="#fff"/>
  <g id="Grupo_10" data-name="Grupo 10" transform="translate(-342.126 -826.5)">
    <path id="Trazado_11" data-name="Trazado 11" d="M251.814,187.182h29.72l-10.227-16.018A27.306,27.306,0,0,0,248.34,158.6H208.49C214.2,176.4,222.231,187.182,251.814,187.182Z" transform="translate(231.887 817.285)" fill="#fff"/>
  </g>
  <rect id="Rectángulo_2" data-name="Rectángulo 2" width="103.865" height="63.446" rx="4.06" transform="translate(85.883 356.467)" fill="#fff"/>
  <path id="Trazado_12" data-name="Trazado 12" d="M384.732,308.116c-12.838-18.806-22.909-43.187-27.208-49.665-11.66-17.373-23.557-23.753-33.136-33.372-14.173-14.311-26.089-26.953-32.371-30.388a41.558,41.558,0,0,0-17.157-3.926,143.674,143.674,0,0,0-26.5,1.551,26.894,26.894,0,0,0-9.815,3.121c-6.321,3.553-9.56,9.5-13.741,16.391V189.706a54.958,54.958,0,0,0-7.3-2.356,111.463,111.463,0,0,1-18.472,20.357,42.656,42.656,0,0,1,14.114,6.91c-9.423,7.754-17.393,15.587-16.627,23.557a2.808,2.808,0,0,0,.177.8,18.082,18.082,0,0,0,0,5.2c.51,5.1,2.67,7.636,10.483,8.657-3.435,2.846-4.378,4.26-3.769,10.973.569,6.223,3.239,8.814,13.879,9.54h1.06a4.712,4.712,0,0,0-1.139.55,4.062,4.062,0,0,0-.491.294c-3.043,2.552-3.926,3.749-3.337,9.678a11.052,11.052,0,0,0,.785,3.514c1.413,3.318,4.966,4.692,13.741,4.986,3.416.118,6.831.294,10.051.334,7.42.118,13.741-.55,15.7-4.476s1.06-11.464-6.517-12.053c-3.239-.255-8.363-1.413-13.545-2.336h0c7.852,0,14.311-.942,16.509-5.143s1.237-13.074-7.558-13.741a79.568,79.568,0,0,1-8.264-1.276l-.883-.157h.883c5.3-.471,9.4-1.708,11.091-4.613,2.356-4.064,1.276-12.367-7.852-13.015h-.255a23.1,23.1,0,0,1-2.611-.294c-3.376-.451-7.6-1.237-11.955-1.963l.216-1.727a33.745,33.745,0,0,0,11.778-.118q1.413-.2,2.827-.471a37.3,37.3,0,0,0,11.916-4.063A26.54,26.54,0,0,0,257,216.992l.118-.294.451.294c2.061,1.237,10.463,6.144,14.232,5.732a25.637,25.637,0,0,1,2.65,12.387c-.177,9.148-.491,20.965,6.655,35.335s22.418,23.243,38.554,35.963a47.113,47.113,0,0,1,8.088,9.815,32.134,32.134,0,0,1,1.2,8.677v7.6c12.112,21.26,25.52,84.8,37.612,127.873h114.72C463.175,434.3,408.818,343.392,384.732,308.116Z" transform="translate(-121.821 18.453)" fill="#fff"/>
  <path id="Trazado_13" data-name="Trazado 13" d="M163.8,151.8a179.856,179.856,0,0,0-5.359,43.678v15.606l50.175-25.736h0v-10.62h0Z" transform="translate(-158.44 -15.763)" fill="#fff"/>
</svg>
